PathFileType	3	(X/Y/Z)	D:\Jess\PFP\Labelled\PA02\20250516\SRRun01.trc
DataRate	CameraRate	NumFrames	NumMarkers	Units	OrigDataRate	OrigDataStartFrame	OrigNumFrames
250.0	250.0	4	37	mm	250.0	37188	2501
Frame#	Time	C7			T10			CLAV			LSHO			RSHO			LASIS			RASIS			LPSIS			RPSIS			LILCR			RILCR			LGTR			LTHI			LLTHI			LLEP			LMEP			LPSH			LLSH			LDSH			LLMAL			LMMAL			LTOE			L5TH			LHEE			RGTR			RTHI			RLTHI			RLEP			RMEP			RPSH			RLSH			RDSH			RLMAL			RMMAL			RTOE			R5TH			RHEE			
		X1	Y1	Z1	X2	Y2	Z2	X3	Y3	Z3	X4	Y4	Z4	X5	Y5	Z5	X6	Y6	Z6	X7	Y7	Z7	X8	Y8	Z8	X9	Y9	Z9	X10	Y10	Z10	X11	Y11	Z11	X12	Y12	Z12	X13	Y13	Z13	X14	Y14	Z14	X15	Y15	Z15	X16	Y16	Z16	X17	Y17	Z17	X18	Y18	Z18	X19	Y19	Z19	X20	Y20	Z20	X21	Y21	Z21	X22	Y22	Z22	X23	Y23	Z23	X24	Y24	Z24	X25	Y25	Z25	X26	Y26	Z26	X27	Y27	Z27	X28	Y28	Z28	X29	Y29	Z29	X30	Y30	Z30	X31	Y31	Z31	X32	Y32	Z32	X33	Y33	Z33	X34	Y34	Z34	X35	Y35	Z35	X36	Y36	Z36	X37	Y37	Z37	

2189	148.748	751.0387068845624	1479.460814383299	-326.4054583503364	650.9564526152135	1220.784210197308	-307.759296441974	886.5519896869777	1372.91449003754	-304.3351862187383	835.1382676685964	1417.248817583262	-482.9036513948325	801.4072956025062	1433.332798495961	-135.1910063352286	799.5547541804571	928.8230858475329	-463.9763344525167	843.7628864159402	908.8256123555459	-218.9568873592197	612.9513086166374	1020.215832443233	-316.2651962006867	616.3087338919098	1018.553106021989	-265.2427914766732	736.0332938240148	1032.170685845554	-493.5019572491612	773.8442197990687	980.5597737471197	-113.5426446062474	718.0917974874026	856.2922305231747	-519.2349704574034	811.8858022755936	695.5866654761585	-448.8620141373922	681.10430113335	599.0700271940524	-474.0412201374864	674.7390412185672	478.078783665801	-446.3203511709012	nan	nan	nan	698.84937131984	358.3244658638621	-379.1885581143405	581.3668075275053	278.1362496597944	-425.901320762052	595.517079900859	197.4761224059328	-343.2998917136563	489.5924127686222	124.0462068850595	-372.6483559964774	nan	nan	nan	621.1445005474698	58.51028690676538	-339.117779256528	586.8323795793003	36.53487511830824	-389.7030853062129	411.8673711832796	112.0990592778108	-324.7380489258591	763.4821640269632	828.2712238969721	-101.1554185813969	915.7638672526812	737.1416541446297	-226.2646649553186	859.3035818286303	613.7576970563576	-143.2326331932877	898.8196716252531	497.2522445405395	-173.8360344923987	nan	nan	nan	866.0191416559014	393.5883801647445	-216.8971250261935	738.2369559589889	392.2248572331301	-154.4798808491583	688.1378131816037	274.4477780007938	-203.1414216732916	566.6109908275405	258.752275133951	-171.4352388166678	nan	nan	nan	609.4445451852413	123.4495877459739	-152.5402347458414	569.8139616296527	135.0358336363755	-126.7169891565933	515.859776858834	287.4921102184036	-248.3376810459097	
2190	148.752	751.2151697464027	1481.729515583616	-327.1437979666954	651.2928281350468	1222.966268549997	-309.9939875704774	886.5676062167471	1375.698618361928	-302.8052344905701	837.4359417847719	1420.163703317335	-482.0603857730576	798.9046357857608	1436.39851204368	-135.2178013174378	799.9911186003501	930.5868864884193	-464.2514973217811	843.3672843687416	911.8975620639732	-218.6305146458837	613.2194655966262	1022.475366908682	-317.2616175727758	616.2527814653089	1021.059812067035	-266.2282379094655	737.2906403073528	1033.587729949917	-493.8530826090756	772.4035090966729	983.996317780499	-113.0463213642455	717.013819023019	857.7580623869397	-519.2706937787303	808.011599439002	695.9369841089256	-447.5950347076218	675.3895338571845	601.4786063596456	-472.8961096978846	666.6414423335848	480.8725425981587	-445.1837361474086	nan	nan	nan	689.4664249178642	360.6151294812183	-378.0775475327964	572.0033644261349	280.8801018724628	-425.5119364816873	586.1478581483066	199.5441501737199	-343.1973753091928	480.2107554065362	126.006745244151	-372.9402099310145	nan	nan	nan	610.7561924292094	58.58026802613119	-339.0667951479034	576.401681554977	36.719653540974	-389.6574730530642	402.534516726176	114.8705452612883	-325.1486828691979	762.8037228393351	831.4800123493259	-101.0420726662782	916.4264381285983	742.0040227665443	-225.7662478262929	861.8149332797033	618.1709474327812	-143.3855919275405	902.7399566754996	502.0891075177458	-174.4373108164985	nan	nan	nan	871.8890395310141	396.9244129027051	-217.5882406117006	744.1727220204377	391.4840045993735	-155.0733178988831	697.6925294324091	272.2120862997533	-203.6269573896284	576.5024140749509	252.4831940890502	-172.0423192408436	nan	nan	nan	625.4173134033493	119.6333260544431	-151.8584867713888	585.2672275253598	129.5625818724611	-126.22148484207	524.5804680933418	278.2345180160246	-249.4082444261354	
2191	148.756	751.4635332285625	1484.097867976706	-327.779411951976	651.6855484879335	1225.234204631796	-312.2626011716724	886.6042660569433	1378.522492759043	-301.2629825295148	839.733413604355	1423.132177822717	-481.1445589069316	796.5263943648145	1439.446418905712	-135.2798199169582	800.5413587264607	932.3987404893093	-464.5938343140834	843.0362320699261	915.0237408474651	-218.2848140938566	613.6183810239093	1024.83878101705	-318.2623550447811	616.3260159043352	1023.674399290431	-267.2205279029224	738.6910579048331	1035.098481154214	-494.1743813189009	770.9838425291587	987.5014086725544	-112.4793205811594	716.0305766529943	859.3323407674737	-519.3122846168891	804.2231939946582	696.4488914149497	-446.2054156295282	669.8475048775646	604.0712068044479	-471.7573199445139	658.6188475360811	483.9267475291153	-444.0404338033824	nan	nan	nan	680.1200159818897	363.1809253274963	-376.9747551550392	562.7024307033174	283.8799450615174	-425.1219884879242	576.939405396948	201.8363755565602	-343.1305544058428	471.0147426937748	128.1367746568122	-373.2354913266613	nan	nan	nan	600.4219731944133	58.66468001837487	-339.0167962652939	566.0051274273927	36.91255727193356	-389.6114827304307	393.4287142227947	117.8968107258776	-325.5268738810776	762.3449950651536	834.8634580150394	-100.8851356345478	917.0323789854	746.9336226808136	-225.3087230484558	864.0981988213124	622.5914765499197	-143.5996453457682	906.3420589708508	506.972633349482	-175.036773598445	nan	nan	nan	877.546871643832	400.2872390644338	-218.2728228432592	750.0066720386905	390.6269585581896	-155.6786733699659	707.3254675595098	269.9883317862634	-204.1880520838777	586.6180229071705	246.126097590837	-172.7351978361347	nan	nan	nan	641.5183496182743	116.0018336793399	-151.3241545748693	600.9073842446867	124.2344465093221	-125.8752604259435	533.6816543343575	268.8554997920792	-250.550851493071	
2192	148.76	751.7787541825219	1486.554181216211	-328.318594549223	652.1338298612769	1227.58200661184	-314.55655422648	886.6583216660694	1381.37359628185	-299.7110338443667	842.0339819847762	1426.139836552688	-480.1585250432304	794.2774346742915	1442.461686863123	-135.3721800432002	801.2088412513879	934.2546768497479	-464.9801922722197	842.7673397877371	918.1992457903324	-217.9191843873934	614.140911455514	1027.301035986273	-319.2634970741891	616.5237923800627	1026.390991570273	-268.2181457405372	740.2315664157508	1036.698496342253	-494.4565558263467	769.5911209450837	991.0711987553476	-111.8602770342973	715.1600653338595	860.9970920615307	-519.3421671604817	800.5299420528202	697.1099484369582	-444.6993960871297	664.4819999341001	606.8373724830169	-470.6418197846037	650.6747837153173	487.2238216126796	-442.9024166905448	nan	nan	nan	670.827560744291	366.0145293569073	-375.8867414235389	553.4806575784635	287.1295099236272	-424.7341289370807	567.9153713037582	204.350807446099	-343.1105459672426	462.0283890123835	130.4354381107995	-373.532286460183	nan	nan	nan	590.1561856020772	58.76008344971005	-338.9688462352536	555.6504594477002	37.11471906210575	-389.5650169469844	384.5803863750909	121.1841889883512	-325.86575201209	762.0971395472066	838.4092577156682	-100.6864233045227	917.5883539214701	751.906491529706	-224.896647374509	866.1471582601298	626.9861350820751	-143.8777815807456	909.6120874404085	511.8595041209244	-175.6327685135088	nan	nan	nan	882.9864852399097	403.6568639220565	-218.9494146619969	755.7510280602496	389.6453556263751	-156.2886300634291	717.0340313421176	267.7816276989957	-204.8197369738901	596.9706276283854	239.7004169885516	-173.5031579468312	nan	nan	nan	657.7332646695065	112.5615927723976	-150.9529681944465	616.7295988374462	119.0622726202182	-125.6852769509055	543.1632731587558	259.4028122730471	-251.7418657648896	
